<?xml version="1.0" encoding="UTF-8"?>
<!DOCTYPE svg PUBLIC "-//W3C//DTD SVG 1.1//EN" "http://www.w3.org/Graphics/SVG/1.1/DTD/svg11.dtd">
<!-- Creator: CorelDRAW -->
<svg xmlns="http://www.w3.org/2000/svg" xml:space="preserve" width="6.82666in" height="6.82666in" style="shape-rendering:geometricPrecision; text-rendering:geometricPrecision; image-rendering:optimizeQuality; fill-rule:evenodd; clip-rule:evenodd"
viewBox="0 0 6.82666 6.82666"
 xmlns:xlink="http://www.w3.org/1999/xlink">
 <defs>
  <style type="text/css">
   <![CDATA[
    .fil0 {fill:#7E57C2}
    .fil2 {fill:#FFFFFE}
    .fil1 {fill:#FFFFFE;fill-rule:nonzero}
   ]]>
  </style>
 </defs>
 <g id="Layer_x0020_1">
  <metadata id="CorelCorpID_0Corel-Layer"/>
  <rect class="fil0" width="6.82666" height="6.82666" rx="0.853335" ry="0.853335"/>
  <g id="_425989640">
   <path id="_425991272" class="fil1" d="M3.6804 3.30213c-0.00414173,-0.0586811 -0.0550709,-0.102894 -0.113752,-0.098752 -0.0586811,0.00414173 -0.102894,0.0550709 -0.098752,0.113752 0.000129921,0.00182677 0.0464921,0.634335 0.0395039,1.02228 -0.0058937,0.327417 -0.037126,0.709354 -0.132472,1.00175 -0.0650512,0.19948 -0.158051,0.352969 -0.290535,0.404941 -0.0547638,0.0214016 -0.081815,0.0831535 -0.0604134,0.137917 0.0214016,0.0547638 0.0831535,0.081815 0.137917,0.0604134 0.200854,-0.0787953 0.331827,-0.280736 0.415535,-0.537437 0.10274,-0.315075 0.13626,-0.719335 0.142472,-1.06426 0.00725197,-0.402768 -0.0393701,-1.03877 -0.0395039,-1.04061z"/>
   <path id="_425990912" class="fil2" d="M3.43513 2.36722c-0.0416339,-0.00441339 -0.070378,-0.0426969 -0.0884921,-0.0769921l-0.00134646 -0.00255118 0.000216535 -0.00287402c0.0043189,-0.0568189 -0.00472047,-0.121555 -0.0150039,-0.177398 -0.0145394,-0.0789528 -0.0356772,-0.15763 -0.0596811,-0.234201l-0.000425197 -0.00135433 -2.75591e-005 -0.0014252c-0.00189764,-0.0899055 0.00187008,-0.180201 0.0101496,-0.269732 0.00889764,-0.0962402 0.0230827,-0.192508 0.0436654,-0.286961 0.0171024,-0.0784803 0.038878,-0.157827 0.0683031,-0.232642 0.0250906,-0.0637992 0.0930591,-0.21839 0.18211,-0.205429 0.011437,0.00166535 0.0225433,0.00484252 0.0331063,0.00954331 0.0936575,0.0416535 0.121626,0.191169 0.131858,0.281122 0.00864567,0.0760079 0.00972047,0.153882 0.00709055,0.23028 -0.00292913,0.0850079 -0.0106969,0.170122 -0.0219291,0.254421 -0.0122559,0.0919724 -0.0287323,0.183764 -0.0497756,0.274138 -0.018378,0.0789331 -0.0404094,0.158484 -0.0687323,0.234461 -0.0201969,0.0541772 -0.0883228,0.231236 -0.171087,0.207594z"/>
   <path id="_425990840" class="fil2" d="M3.5556 2.41118c-0.0338543,-0.0246417 -0.0396063,-0.0721693 -0.0381457,-0.110929l0.000106299 -0.00288583 0.00162992 -0.00237795c0.0321457,-0.0470512 0.056689,-0.107634 0.0757047,-0.161142 0.0268858,-0.0756457 0.0479173,-0.154358 0.0654173,-0.232673l0.000311024 -0.00138583 0.000685039 -0.00124803c0.043311,-0.0788031 0.0917165,-0.15511 0.143646,-0.228504 0.0558307,-0.0788937 0.116248,-0.155173 0.181303,-0.226681 0.0540512,-0.0594173 0.112583,-0.117244 0.175472,-0.167323 0.0438622,-0.0349291 0.0973858,-0.0722874 0.150413,-0.0915197 0.0348268,-0.0126299 0.0785394,-0.0201732 0.110012,0.00466929 0.0090748,0.00716142 0.0171024,0.0154646 0.0239016,0.024815 0.0602835,0.0829055 0.00974409,0.22637 -0.0263701,0.30939 -0.0627244,0.144193 -0.159476,0.287996 -0.255201,0.412343 -0.0565984,0.0735276 -0.116764,0.14478 -0.180173,0.212528 -0.0553819,0.0591693 -0.11424,0.117043 -0.17676,0.168681 -0.0457756,0.037815 -0.177102,0.142894 -0.241547,0.102669 -0.00380709,-0.00237795 -0.0072874,-0.00520866 -0.0104055,-0.0084252z"/>
   <path id="_425990816" class="fil2" d="M3.63794 2.50948c-0.0169921,-0.0382638 0.0017874,-0.0822953 0.0224291,-0.115134l0.00153543 -0.00244488 0.00260236 -0.00124803c0.00460236,-0.00220866 0.00915748,-0.0045315 0.0136575,-0.00694882l0.00227953 -0.00122441c0.00484252,-0.00260236 0.0096063,-0.00535827 0.0143346,-0.00816535l0.00223622 -0.00132677c0.00507087,-0.00300394 0.0100551,-0.00615748 0.0150079,-0.00935433l0.00255118 -0.00164567c0.00512992,-0.00330709 0.0101811,-0.00674409 0.0152008,-0.0102165l0.00306693 -0.00212205c0.00520079,-0.00359843 0.0103228,-0.00730315 0.0154134,-0.0110512l0.00343701 -0.0025315c0.00530709,-0.00390945 0.0105551,-0.00790551 0.0157598,-0.0119488l0.00360236 -0.00279921c0.00545276,-0.00423622 0.0108425,-0.00855118 0.0162008,-0.0129094l0.00333071 -0.00270866c0.00568504,-0.00462205 0.0113071,-0.00932283 0.0168937,-0.0140669l0.00338189 -0.00287008c0.00568898,-0.00482677 0.0113189,-0.00972835 0.0169173,-0.0146575l0.00402362 -0.00354331c0.00572441,-0.00504331 0.0113819,-0.0101654 0.0170197,-0.0153071l0.00381496 -0.00348031c0.00587402,-0.00535827 0.011685,-0.0107874 0.0174685,-0.0162441l0.0040748 -0.00384646c0.00593307,-0.00560236 0.011811,-0.0112598 0.0176614,-0.0169488l0.00362598 -0.00352756c0.00601575,-0.00585433 0.0119803,-0.0117638 0.0179094,-0.0177047l0.00445276 -0.00446063c0.00579921,-0.00580709 0.0115512,-0.0116575 0.0172638,-0.0175472l0.00501575 -0.00517323c0.00585433,-0.00603937 0.0116654,-0.0121142 0.0174409,-0.0182205l0.00424016 -0.00448425c0.00605118,-0.00640157 0.0120512,-0.0128543 0.0180236,-0.0193268l0.00477559 -0.00517323 0.00120866 -0.000732283c0.0769173,-0.0465866 0.156988,-0.0884764 0.238665,-0.126071 0.0877992,-0.0404134 0.17826,-0.0762638 0.27035,-0.105665 0.0765197,-0.0244291 0.156122,-0.0452402 0.235622,-0.0571654 0.0677992,-0.0101693 0.235669,-0.0286024 0.268965,0.055 0.00427559,0.0107362 0.00707874,0.0219409 0.00829134,0.0334409 0.00492126,0.0466614 -0.016748,0.0911693 -0.0436654,0.127799 -0.0356575,0.0485236 -0.0856732,0.0913071 -0.133866,0.126957 -0.126417,0.0935079 -0.28211,0.169669 -0.427185,0.229496 -0.0857756,0.035374 -0.173508,0.067 -0.262295,0.0939646 -0.0775472,0.0235512 -0.157457,0.0442441 -0.237417,0.0577047 -0.0570157,0.00959843 -0.244417,0.0391299 -0.265323,-0.0443661z"/>
   <path id="_425990648" class="fil2" d="M3.6601 2.63578c0.00441732,-0.0416339 0.0426969,-0.070378 0.0769921,-0.0884961l0.00255118 -0.00134646 0.00287402 0.000216535c0.0568189,0.0043189 0.121555,-0.00472047 0.177402,-0.0150039 0.0789528,-0.0145394 0.15763,-0.0356772 0.234201,-0.0596811l0.00135433 -0.000425197 0.0014252 -2.75591e-005c0.0899055,-0.00188976 0.180197,0.00187008 0.269728,0.0101496 0.0962402,0.00889764 0.192512,0.0230827 0.286965,0.0436654 0.0784803,0.0171024 0.157827,0.0388819 0.232642,0.0683071 0.0637992,0.0250906 0.21839,0.0930591 0.205429,0.18211 -0.00166929,0.011437 -0.00484252,0.0225433 -0.00954331,0.0331063 -0.0416535,0.0936575 -0.191169,0.121626 -0.281122,0.131858 -0.0760118,0.00864567 -0.153882,0.00972047 -0.230283,0.00709055 -0.0850079,-0.0029252 -0.170118,-0.0106969 -0.254421,-0.0219291 -0.0919724,-0.0122559 -0.18376,-0.0287323 -0.274138,-0.0497756 -0.0789331,-0.018378 -0.15848,-0.0404094 -0.234461,-0.0687323 -0.0541772,-0.0201969 -0.231236,-0.0883228 -0.207594,-0.171087z"/>
   <path id="_425990192" class="fil2" d="M3.61614 2.75625c0.0246378,-0.0338543 0.0721654,-0.0396024 0.110925,-0.0381457l0.00288189 0.000106299 0.00238189 0.00162992c0.0470512,0.0321457 0.107634,0.056689 0.161142,0.0757047 0.0756457,0.0268819 0.15435,0.0479173 0.232665,0.0654134l0.00138583 0.000311024 0.00124803 0.000685039c0.0788031,0.043315 0.155114,0.0917165 0.228512,0.14365 0.0788976,0.0558268 0.155177,0.116248 0.226685,0.181299 0.0594134,0.0540512 0.11724,0.112587 0.167319,0.175472 0.0349291,0.0438661 0.0722874,0.0973898 0.0915197,0.150417 0.0126299,0.0348268 0.0201732,0.0785394 -0.00466929,0.110012 -0.00716142,0.0090748 -0.0154646,0.0171024 -0.024815,0.0239016 -0.0829055,0.0602835 -0.226374,0.00974409 -0.309394,-0.0263701 -0.144189,-0.0627244 -0.287992,-0.159476 -0.412339,-0.255201 -0.0735276,-0.0565984 -0.14478,-0.11676 -0.212524,-0.180173 -0.0591693,-0.0553819 -0.117043,-0.114236 -0.168685,-0.176756 -0.037811,-0.0457795 -0.14289,-0.177106 -0.102665,-0.241551 0.00237795,-0.00380709 0.00520866,-0.0072874 0.0084252,-0.0104055z"/>
   <path id="_425990600" class="fil2" d="M3.51784 2.83859c0.0382598,-0.0169921 0.0822953,0.00179528 0.11513,0.0224331l0.00244094 0.00153543 0.00125197 0.00260236c0.0246732,0.0513622 0.0648661,0.102902 0.101697,0.146126 0.0520669,0.0611024 0.109713,0.118669 0.16878,0.17298l0.00104724 0.00096063 0.000740157 0.00122047c0.0465906,0.0769134 0.0884803,0.156992 0.126075,0.238665 0.0404173,0.0877992 0.0762677,0.178264 0.105669,0.270354 0.0244291,0.0765157 0.0452402,0.156122 0.0571654,0.235622 0.0101693,0.0677992 0.0286024,0.235665 -0.055,0.268965 -0.0107362,0.00427559 -0.0219409,0.00707874 -0.0334409,0.00829134 -0.0466614,0.00492126 -0.0911693,-0.016748 -0.127799,-0.0436654 -0.0485236,-0.0356575 -0.0913031,-0.0856732 -0.126957,-0.13387 -0.0935079,-0.126417 -0.169669,-0.282106 -0.229496,-0.427181 -0.035374,-0.0857795 -0.067,-0.173508 -0.0939646,-0.262295 -0.0235512,-0.0775472 -0.0442441,-0.157457 -0.0577047,-0.237421 -0.00959843,-0.0570157 -0.0391299,-0.244413 0.0443661,-0.265323z"/>
   <path id="_425990408" class="fil2" d="M3.39154 2.86076c0.0416299,0.00440945 0.070378,0.0426969 0.0884921,0.0769921l0.00134646 0.00255118 -0.000216535 0.00287402c-0.0043189,0.0568189 0.00472047,0.121555 0.0150039,0.177398 0.0145394,0.0789528 0.0356772,0.15763 0.0596811,0.234201l0.000425197 0.00135433 2.75591e-005 0.0014252c0.00189764,0.0899055 -0.00187008,0.180201 -0.0101496,0.269732 -0.00889764,0.0962402 -0.0230827,0.192508 -0.0436654,0.286961 -0.0171024,0.0784803 -0.038878,0.157827 -0.0683031,0.232642 -0.0250906,0.0637992 -0.0930591,0.21839 -0.18211,0.205429 -0.011437,-0.00166535 -0.0225433,-0.00484252 -0.0331063,-0.00954331 -0.0936575,-0.0416535 -0.121626,-0.191169 -0.131858,-0.281122 -0.00864567,-0.0760079 -0.00972047,-0.153882 -0.00709055,-0.23028 0.00292913,-0.0850079 0.0106969,-0.170122 0.0219291,-0.254421 0.0122559,-0.0919724 0.0287323,-0.183764 0.0497756,-0.274138 0.018378,-0.0789331 0.0404094,-0.158484 0.0687323,-0.234461 0.0201969,-0.0541772 0.0883228,-0.231236 0.171087,-0.207594z"/>
   <path id="_425990432" class="fil2" d="M3.27106 2.81679c0.0338543,0.0246417 0.0396063,0.0721693 0.0381457,0.110929l-0.000106299 0.00288583 -0.00162992 0.00237795c-0.0321457,0.0470472 -0.056685,0.107634 -0.0757008,0.161142 -0.0268858,0.0756417 -0.0479173,0.15435 -0.0654173,0.232661l-0.000311024 0.00138583 -0.000685039 0.00124803c-0.043311,0.0788071 -0.0917165,0.155118 -0.14365,0.228516 -0.0558307,0.0788937 -0.116248,0.155173 -0.181303,0.226681 -0.0540512,0.0594134 -0.112583,0.117244 -0.175472,0.167319 -0.0438622,0.0349291 -0.0973858,0.0722913 -0.150413,0.0915236 -0.0348268,0.0126299 -0.0785394,0.0201732 -0.110012,-0.00466929 -0.0090748,-0.00716142 -0.0171024,-0.0154646 -0.0239016,-0.024815 -0.0602835,-0.0829055 -0.00974409,-0.22637 0.0263701,-0.30939 0.0627244,-0.144193 0.159476,-0.287996 0.255201,-0.412343 0.0565984,-0.0735276 0.116764,-0.14478 0.180173,-0.212528 0.0553819,-0.0591693 0.11424,-0.117043 0.17676,-0.168681 0.0457756,-0.037815 0.177102,-0.142894 0.241547,-0.102669 0.00380709,0.00237795 0.0072874,0.00520866 0.0104055,0.0084252z"/>
   <path id="_425990312" class="fil2" d="M3.18872 2.71849c0.0169921,0.0382638 -0.0017874,0.0822953 -0.0224291,0.115134l-0.00153543 0.00244488 -0.00260236 0.00124803c-0.0513622,0.0246693 -0.102906,0.0648661 -0.146126,0.101697 -0.0611024,0.0520669 -0.118669,0.109713 -0.17298,0.16878l-0.00096063 0.00104724 -0.00122047 0.000740157c-0.0769173,0.0465906 -0.156992,0.0884764 -0.238669,0.126075 -0.0877953,0.0404173 -0.17826,0.0762677 -0.27035,0.105665 -0.0765157,0.0244291 -0.156122,0.0452441 -0.235622,0.0571693 -0.0677992,0.0101654 -0.235669,0.0285984 -0.268965,-0.0550039 -0.00427559,-0.0107362 -0.00707874,-0.0219409 -0.00829134,-0.0334409 -0.00492126,-0.0466614 0.016748,-0.0911693 0.0436654,-0.127799 0.0356575,-0.0485236 0.0856732,-0.0913071 0.133866,-0.126957 0.126417,-0.0935079 0.28211,-0.169669 0.427185,-0.229496 0.0857756,-0.035374 0.173508,-0.067 0.262295,-0.0939646 0.0775472,-0.0235512 0.157457,-0.0442441 0.237417,-0.0577047 0.0570157,-0.00959843 0.244417,-0.0391299 0.265323,0.0443661z"/>
   <path id="_425989232" class="fil2" d="M3.16656 2.59219c-0.00441732,0.0416339 -0.0426969,0.070378 -0.0769921,0.0884961l-0.00255118 0.00134646 -0.00287402 -0.000216535c-0.0568189,-0.0043189 -0.121555,0.00472047 -0.177402,0.0150039 -0.0789528,0.0145394 -0.15763,0.0356772 -0.234201,0.0596811l-0.00135433 0.000425197 -0.0014252 2.75591e-005c-0.0899055,0.00188976 -0.180197,-0.00187008 -0.269728,-0.0101496 -0.0962402,-0.00889764 -0.192512,-0.0230827 -0.286965,-0.0436654 -0.0784803,-0.0171024 -0.157827,-0.0388819 -0.232642,-0.0683071 -0.0637992,-0.0250906 -0.21839,-0.0930591 -0.205429,-0.18211 0.00166929,-0.011437 0.00484252,-0.0225433 0.00954331,-0.0331063 0.0416535,-0.0936575 0.191169,-0.121626 0.281122,-0.131858 0.0760118,-0.00864567 0.153882,-0.00972047 0.230283,-0.00709055 0.0850079,0.0029252 0.170118,0.0106969 0.254421,0.0219291 0.0919724,0.0122559 0.18376,0.0287323 0.274138,0.0497756 0.0789331,0.018378 0.15848,0.0404094 0.234461,0.0687323 0.0541772,0.0201969 0.231236,0.0883228 0.207594,0.171087z"/>
   <path id="_425989112" class="fil2" d="M3.21052 2.47172c-0.0246378,0.0338543 -0.0721654,0.0396024 -0.110925,0.0381457l-0.00288189 -0.000106299 -0.00238189 -0.00162992c-0.0470512,-0.0321457 -0.107634,-0.056689 -0.161142,-0.0757047 -0.0756457,-0.0268819 -0.15435,-0.0479173 -0.232665,-0.0654134l-0.00138583 -0.000311024 -0.00124803 -0.000685039c-0.0788031,-0.043315 -0.155114,-0.0917165 -0.228512,-0.14365 -0.0788976,-0.0558268 -0.155177,-0.116248 -0.226685,-0.181299 -0.0594134,-0.0540512 -0.11724,-0.112587 -0.167319,-0.175472 -0.0349291,-0.0438661 -0.0722874,-0.0973898 -0.0915197,-0.150417 -0.0126299,-0.0348268 -0.0201732,-0.0785394 0.00466929,-0.110012 0.00716142,-0.0090748 0.0154646,-0.0171024 0.024815,-0.0239016 0.0829055,-0.0602835 0.226374,-0.00974409 0.309394,0.0263701 0.144189,0.0627244 0.287992,0.159476 0.412339,0.255201 0.0735276,0.0565984 0.14478,0.11676 0.212524,0.180173 0.0591693,0.0553819 0.117043,0.114236 0.168685,0.176756 0.037811,0.0457795 0.14289,0.177106 0.102665,0.241551 -0.00237795,0.00380709 -0.00520866,0.0072874 -0.0084252,0.0104055z"/>
   <path id="_425989712" class="fil2" d="M3.30882 2.38938c-0.0382598,0.0169921 -0.0822953,-0.00179528 -0.11513,-0.0224331l-0.00244094 -0.00153543 -0.00125197 -0.00260236c-0.0246732,-0.0513622 -0.0648661,-0.102902 -0.101697,-0.146126 -0.0520669,-0.0611024 -0.109713,-0.118669 -0.16878,-0.17298l-0.00104724 -0.00096063 -0.000740157 -0.00122047c-0.0465906,-0.0769134 -0.0884803,-0.156992 -0.126075,-0.238665 -0.0404173,-0.0877992 -0.0762677,-0.178264 -0.105669,-0.270354 -0.0244291,-0.0765157 -0.0452402,-0.156122 -0.0571654,-0.235622 -0.0101693,-0.0677992 -0.0286024,-0.235665 0.055,-0.268965 0.0107362,-0.00427559 0.0219409,-0.00707874 0.0334409,-0.00829134 0.0466614,-0.00492126 0.0911693,0.016748 0.127799,0.0436654 0.0485236,0.0356575 0.0913031,0.0856732 0.126957,0.13387 0.0935079,0.126417 0.169669,0.282106 0.229496,0.427181 0.035374,0.0857795 0.067,0.173508 0.0939646,0.262295 0.0235512,0.0775472 0.0442441,0.157457 0.0577047,0.237421 0.00959843,0.0570157 0.0391299,0.244413 -0.0443661,0.265323z"/>
  </g>
 </g>
</svg>
