<?xml version="1.0" encoding="iso-8859-1"?>
<!-- Generator: Adobe Illustrator 21.0.2, SVG Export Plug-In . SVG Version: 6.00 Build 0)  -->
<svg version="1.1" xmlns="http://www.w3.org/2000/svg" xmlns:xlink="http://www.w3.org/1999/xlink" x="0px" y="0px"
	 viewBox="0 0 64 64" style="enable-background:new 0 0 64 64;" xml:space="preserve">
<g id="crocus">
</g>
<g id="cactus">
</g>
<g id="anemone_1_">
</g>
<g id="twinflower">
</g>
<g id="_angelonia">
</g>
<g id="magnolia">
</g>
<g id="rosella">
</g>
<g id="amaryllis">
</g>
<g id="lily_calla">
</g>
<g id="cleome">
</g>
<g id="euphorbia">
</g>
<g id="rafflesia">
</g>
<g id="krisan">
</g>
<g id="orchid">
</g>
<g id="anemone">
</g>
<g id="gaura">
</g>
<g id="poppy">
</g>
<g id="bluestar">
</g>
<g id="hydrangea">
</g>
<g id="leadwort">
</g>
<g id="anthurium">
</g>
<g id="blossom">
</g>
<g id="lily">
</g>
<g id="tulip">
</g>
<g id="sunflower">
</g>
<g id="jasmine">
</g>
<g id="bell">
</g>
<g id="rose">
	<path d="M51.6348,42.1675c-0.168-0.2158-0.417-0.3535-0.689-0.3813c-5.9632-0.6-11.9593-0.5626-16.1357,3.1803v-7.0522
		c2.68-1.1146,4.5615-3.6815,4.5615-6.6652v-0.5245c2.9739-1.6356,4.9038-4.2042,4.9038-7.0966V7.7388
		c0-0.3457-0.1787-0.667-0.4727-0.8496c-0.2935-0.1831-0.6606-0.2007-0.9707-0.0464l-4.5724,2.2631
		c-0.834-3.33-2.8126-6.007-5.8973-7.9516c-0.3467-0.2183-0.7944-0.2031-1.126,0.0405c-2.4659,1.8152-4.1296,3.5493-5.3027,6.9429
		c-1.6536-0.677-3.4523-1.1475-5.4287-1.3917c-0.2896-0.0361-0.5708,0.0537-0.7847,0.2437
		c-0.2148,0.1895-0.3379,0.4624-0.3379,0.749v15.8892c0,2.8935,1.9313,5.4628,4.9072,7.0984v0.5227
		c0,2.9843,1.8815,5.5519,4.5615,6.666v7.0603c-4.0978-3.6456-9.9655-3.6826-15.7969-3.093c-0.272,0.0278-0.521,0.1655-0.689,0.3813
		c-0.1675,0.2158-0.2397,0.4907-0.1997,0.7612c1.0728,7.1904,3.3306,14.8052,16.3955,14.8047c0.094,0,0.1948-0.0046,0.29-0.0054
		v2.3829c0,1.54,1.2515,2.793,2.7896,2.793h0.3765c1.54,0,2.793-1.2529,2.793-2.793v-2.1944
		c0.1038,0.0009,0.2134,0.0059,0.3159,0.0059c13.3115,0,15.6147-7.7612,16.7085-15.0898
		C51.8745,42.6582,51.8022,42.3833,51.6348,42.1675z M28.8511,51.2195l-8.5239-4.2708c-0.4932-0.2485-1.0947-0.0474-1.3418,0.4463
		c-0.2476,0.4937-0.0479,1.0942,0.4463,1.3418l9.4194,4.7194v2.3542c-11.1262,0.0901-13.4501-5.5047-14.543-12.0366
		c6.4731-0.5549,11.4351,0.0444,14.543,4.1395V51.2195z M42.2754,9.3496v14.2783c0,3.6963-4.6175,6.8217-10.1475,6.9319
		c-3.5938-2.4284-5.7025-8.8047-2.9628-13.3958c0.667-1.1118,1.2998-1.7939,2.1138-2.2788l0.9402-0.5585L42.2754,9.3496z
		 M27.7793,8.9092c0.936-2.7529,2.1841-4.207,4.0874-5.6846c2.3794,1.6621,3.8525,3.7979,4.4937,6.5039
		c0.0068,0.0308,0.0309,0.1472,0.0599,0.2877l-4.4578,2.2064c-1.261-1.309-2.6685-2.3711-4.218-3.2214
		C27.7571,8.9677,27.7742,8.9227,27.7793,8.9092z M21.3823,23.6279V8.8984c3.5275,0.6202,6.4106,2.0543,8.7656,4.3459
		c-1.3424,0.8369-2.1503,1.9781-2.6992,2.8928c-2.7538,4.6147-1.5383,10.5329,1.4407,14.1373
		C24.6052,29.4066,21.3823,26.7156,21.3823,23.6279z M26.3099,31.6311c1.6655,0.5954,3.5347,0.939,5.5178,0.9391
		c0.0001,0,0.0002,0.0001,0.0004,0.0001c0.0001,0,0.0002,0,0.0002,0c0.0002,0,0.0005,0,0.0007,0
		c1.9847,0,3.8555-0.3441,5.5222-0.9403c-0.2072,2.7221-2.6015,4.8778-5.5222,4.8778
		C28.9103,36.5078,26.5175,34.3526,26.3099,31.6311z M32.0171,61h-0.3765c-0.4355,0-0.7896-0.356-0.7896-0.793V38.4396
		c0.321,0.0403,0.6458,0.0682,0.978,0.0682c0.3332,0,0.6591-0.0281,0.981-0.0686V60.207C32.8101,60.6367,32.4468,61,32.0171,61z
		 M34.8101,56.015v-2.0811l8.1851-4.9442c0.4727-0.2856,0.6245-0.9004,0.3389-1.373c-0.2861-0.4731-0.9014-0.6255-1.373-0.3389
		l-7.1509,4.3195v-3.6838c3.1802-4.195,8.2597-4.8048,14.8818-4.2357C48.5748,50.3705,46.2324,56.1303,34.8101,56.015z"/>
</g>
<g id="zinnia">
</g>
<g id="buttercup">
</g>
</svg>
