<svg id="line" xmlns="http://www.w3.org/2000/svg" width="64" height="64" viewBox="0 0 64 64"><title>flower</title><path d="M58.5,45.5H47V42.449A17.007,17.007,0,0,0,63,25.5c0-7.168-4.037-13-9-13a6.454,6.454,0,0,0-2.274.434C54.907,15.882,57,21.237,57,27.5a1,1,0,0,1-2,0c0-7.359-3.026-13.324-7.164-14.7a6.5,6.5,0,0,0-3.672,0C40.026,14.176,37,20.141,37,27.5a1,1,0,0,1-2,0c0-6.263,2.093-11.618,5.274-14.566A6.454,6.454,0,0,0,38,12.5c-4.963,0-9,5.832-9,13A17.007,17.007,0,0,0,45,42.449V45.5H33.5a1,1,0,0,0-.966,1.258l4,15a1,1,0,0,0,.966.742h17a1,1,0,0,0,.966-.742l4-15A1,1,0,0,0,58.5,45.5Zm-5.537,15H39.037a1,1,0,0,1,0-2H52.963a1,1,0,0,1,0,2Z" style="fill:#c4a2fc"/><path d="M32.981,25.881c.006-.127.019-.252.019-.381s-.013-.254-.019-.381A23.886,23.886,0,0,0,49,2.5a1,1,0,0,0-1-1A23.886,23.886,0,0,0,25.381,17.519c-.127-.006-.252-.019-.381-.019s-.254.013-.381.019A23.886,23.886,0,0,0,2,1.5a1,1,0,0,0-1,1A23.886,23.886,0,0,0,17.019,25.119c-.006.127-.019.252-.019.381s.013.254.019.381A23.886,23.886,0,0,0,1,48.5a1,1,0,0,0,1,1A23.886,23.886,0,0,0,24.619,33.481c.127.006.252.019.381.019s.254-.013.381-.019A23.886,23.886,0,0,0,48,49.5a1,1,0,0,0,1-1A23.886,23.886,0,0,0,32.981,25.881Zm14-22.358a21.885,21.885,0,0,1-14.339,19.6A7.974,7.974,0,0,0,31.312,20.6l9.4-9.395a1,1,0,0,0-1.414-1.414l-9.395,9.4a7.974,7.974,0,0,0-2.518-1.326A21.885,21.885,0,0,1,46.977,3.523Zm-43.954,0a21.885,21.885,0,0,1,19.6,14.339A7.974,7.974,0,0,0,20.1,19.188L10.707,9.793a1,1,0,0,0-1.414,1.414l9.4,9.4a7.974,7.974,0,0,0-1.326,2.518A21.885,21.885,0,0,1,3.023,3.523Zm0,43.954a21.885,21.885,0,0,1,14.339-19.6A7.974,7.974,0,0,0,18.688,30.4l-9.395,9.4a1,1,0,0,0,1.414,1.414l9.4-9.395a7.974,7.974,0,0,0,2.518,1.326A21.885,21.885,0,0,1,3.023,47.477ZM25,31.5a6,6,0,1,1,6-6A6.006,6.006,0,0,1,25,31.5Zm2.38,1.638A7.974,7.974,0,0,0,29.9,31.812l9.4,9.4a1,1,0,0,0,1.414-1.414L31.312,30.4a7.974,7.974,0,0,0,1.326-2.518,21.885,21.885,0,0,1,14.339,19.6A21.885,21.885,0,0,1,27.38,33.138Z" style="fill:#151a6a"/></svg>