<?xml version="1.0" encoding="iso-8859-1"?>
<!-- Generator: Adobe Illustrator 21.0.2, SVG Export Plug-In . SVG Version: 6.00 Build 0)  -->
<svg version="1.1" xmlns="http://www.w3.org/2000/svg" xmlns:xlink="http://www.w3.org/1999/xlink" x="0px" y="0px"
	 viewBox="0 0 64 64" style="enable-background:new 0 0 64 64;" xml:space="preserve">
<g id="crocus">
</g>
<g id="cactus">
</g>
<g id="anemone_1_">
</g>
<g id="twinflower">
</g>
<g id="_angelonia">
</g>
<g id="magnolia">
</g>
<g id="rosella">
</g>
<g id="amaryllis">
</g>
<g id="lily_calla">
</g>
<g id="cleome">
</g>
<g id="euphorbia">
</g>
<g id="rafflesia">
</g>
<g id="krisan">
</g>
<g id="orchid">
</g>
<g id="anemone">
</g>
<g id="gaura">
</g>
<g id="poppy">
</g>
<g id="bluestar">
</g>
<g id="hydrangea">
</g>
<g id="leadwort">
</g>
<g id="anthurium">
</g>
<g id="blossom">
</g>
<g id="lily">
</g>
<g id="tulip">
	<g>
		<path d="M29.4097,28.0264c-5.6357-3.478-5.6655-7.876-5.6919-11.7563c-0.0039-0.5498-0.4507-0.9932-1-0.9932
			c-0.002,0-0.0044,0-0.0068,0c-0.5522,0.0039-0.9971,0.4546-0.9932,1.0068c0.0269,3.9609,0.0635,9.3853,6.6411,13.4448
			c0.1641,0.1011,0.3452,0.1489,0.5244,0.1489c0.3354,0,0.6631-0.1685,0.8521-0.4746
			C30.0254,28.9326,29.8794,28.3164,29.4097,28.0264z"/>
		<path d="M60.501,37.7051c-0.1157-0.3472-0.4116-0.6035-0.772-0.6685c-8.1777-1.4688-15.6631,0.0259-20.5381,4.1035
			c-1.5887,1.3286-2.843,2.9058-3.7871,4.6714V34.6951c6.2308-1.5178,10.8755-7.1307,10.8755-13.822V5.6616
			c0-0.3276-0.1606-0.6343-0.4292-0.8213c-0.2695-0.1865-0.6133-0.23-0.9194-0.1157l-7.5171,2.7979L32.855,1.4028
			C32.667,1.1499,32.3701,1.0005,32.0547,1c-0.0005,0-0.001,0-0.0015,0c-0.3149,0-0.6113,0.1484-0.8003,0.4004L26.667,7.5229
			l-7.519-2.7983c-0.3066-0.1152-0.6504-0.0713-0.9194,0.1157c-0.2686,0.187-0.4292,0.4937-0.4292,0.8213V20.873
			c0,6.6628,4.6061,12.2556,10.7969,13.8016v11.1368c-0.9442-1.7656-2.1984-3.3428-3.7871-4.6714
			c-4.876-4.0776-12.3628-5.5728-20.5381-4.1035c-0.3604,0.0649-0.6563,0.3213-0.772,0.6685
			c-0.1157,0.3477-0.0322,0.73,0.2173,0.998c2.3857,2.5586,4.2119,5.0273,5.8228,7.2061c4.061,5.4917,7.1685,9.6938,15.2646,9.6938
			c1.1552,0,2.4169-0.089,3.7925-0.2686v4.4893c0,1.7515,1.4248,3.1763,3.1763,3.1763h0.4551c1.7515,0,3.1763-1.4248,3.1763-3.1763
			v-4.4894c1.376,0.1797,2.6373,0.2687,3.793,0.2687c8.0962,0,11.2041-4.2021,15.2642-9.6929
			c1.6108-2.1787,3.4365-4.6479,5.8228-7.207C60.5332,38.4351,60.6167,38.0527,60.501,37.7051z M19.7993,20.873V7.1011
			l6.8711,2.5571c0.4136,0.1528,0.8833,0.0171,1.1489-0.3374l4.2314-5.6499l4.207,5.6475c0.2646,0.3564,0.7339,0.4946,1.1504,0.3398
			l6.8711-2.5571v13.772c0,6.7495-5.4907,12.2402-12.2397,12.2402C25.29,33.1133,19.7993,27.6226,19.7993,20.873z M11.147,44.7197
			c-1.3521-1.8281-2.8521-3.8564-4.7139-5.9902c6.8701-0.8589,13.0269,0.5439,17.0928,3.9448
			c2.5739,2.1523,4.1896,5.0391,4.7917,8.4417c-2.2382-2.4963-4.5479-4.4819-7.5197-5.888
			c-0.499-0.2363-1.0952-0.0234-1.3315,0.4761c-0.2363,0.499-0.0229,1.0952,0.4761,1.3315c3.048,1.4424,5.3764,3.6076,7.7321,6.3865
			C18.3782,54.4504,15.5803,50.7148,11.147,44.7197z M33.4038,59.8237c0,0.6484-0.5278,1.1763-1.1763,1.1763h-0.4551
			c-0.6484,0-1.1763-0.5278-1.1763-1.1763V35.0402c0.4747,0.048,0.9562,0.0731,1.4434,0.0731c0.4605,0,0.9149-0.0262,1.3643-0.0692
			V59.8237z M52.8525,44.7212c-4.432,5.9938-7.2256,9.7349-16.5273,8.7014c2.3558-2.7792,4.6842-4.9444,7.7324-6.3869
			c0.499-0.2363,0.7124-0.8325,0.4761-1.3315c-0.2358-0.499-0.8311-0.7119-1.3315-0.4761
			c-2.9717,1.4061-5.2814,3.3917-7.5197,5.8879c0.6021-3.4026,2.2178-6.2894,4.7916-8.4417
			c4.0659-3.3999,10.2256-4.8018,17.0928-3.9448C55.7051,40.8633,54.2046,42.8926,52.8525,44.7212z"/>
	</g>
</g>
<g id="sunflower">
</g>
<g id="jasmine">
</g>
<g id="bell">
</g>
<g id="rose">
</g>
<g id="zinnia">
</g>
<g id="buttercup">
</g>
</svg>
